<svg width="40" height="40" viewBox="0 0 40 40" fill="none" xmlns="http://www.w3.org/2000/svg">
<path d="M11.9499 0.833252H28.0499C34.1833 0.833252 39.1666 5.81659 39.1666 11.9499V28.0499C39.1666 30.9982 37.9954 33.8258 35.9106 35.9106C33.8258 37.9954 30.9982 39.1666 28.0499 39.1666H11.9499C5.81659 39.1666 0.833252 34.1833 0.833252 28.0499V11.9499C0.833252 9.0016 2.00447 6.17403 4.08925 4.08925C6.17403 2.00447 9.0016 0.833252 11.9499 0.833252ZM11.5666 4.66659C9.73659 4.66659 7.98155 5.39355 6.68755 6.68755C5.39355 7.98155 4.66659 9.73659 4.66659 11.5666V28.4333C4.66659 32.2474 7.75242 35.3333 11.5666 35.3333H28.4333C30.2632 35.3333 32.0183 34.6063 33.3123 33.3123C34.6063 32.0183 35.3333 30.2632 35.3333 28.4333V11.5666C35.3333 7.75242 32.2474 4.66659 28.4333 4.66659H11.5666ZM30.0624 7.54158C30.6978 7.54158 31.3072 7.794 31.7565 8.24331C32.2058 8.69261 32.4583 9.302 32.4583 9.93742C32.4583 10.5728 32.2058 11.1822 31.7565 11.6315C31.3072 12.0808 30.6978 12.3333 30.0624 12.3333C29.427 12.3333 28.8176 12.0808 28.3683 11.6315C27.919 11.1822 27.6666 10.5728 27.6666 9.93742C27.6666 9.302 27.919 8.69261 28.3683 8.24331C28.8176 7.794 29.427 7.54158 30.0624 7.54158ZM19.9999 10.4166C22.5416 10.4166 24.9791 11.4263 26.7764 13.2235C28.5736 15.0207 29.5833 17.4583 29.5833 19.9999C29.5833 22.5416 28.5736 24.9791 26.7764 26.7764C24.9791 28.5736 22.5416 29.5833 19.9999 29.5833C17.4583 29.5833 15.0207 28.5736 13.2235 26.7764C11.4263 24.9791 10.4166 22.5416 10.4166 19.9999C10.4166 17.4583 11.4263 15.0207 13.2235 13.2235C15.0207 11.4263 17.4583 10.4166 19.9999 10.4166ZM19.9999 14.2499C18.4749 14.2499 17.0124 14.8557 15.9341 15.9341C14.8557 17.0124 14.2499 18.4749 14.2499 19.9999C14.2499 21.5249 14.8557 22.9874 15.9341 24.0658C17.0124 25.1441 18.4749 25.7499 19.9999 25.7499C21.5249 25.7499 22.9874 25.1441 24.0658 24.0658C25.1441 22.9874 25.7499 21.5249 25.7499 19.9999C25.7499 18.4749 25.1441 17.0124 24.0658 15.9341C22.9874 14.8557 21.5249 14.2499 19.9999 14.2499Z" fill="white"/>
</svg>
