<svg width="46" height="46" viewBox="0 0 46 46" fill="none" xmlns="http://www.w3.org/2000/svg">
<path d="M29.4208 10.6376C27.9644 10.6373 26.5661 11.2087 25.5266 12.2288C24.4872 13.2489 23.8896 14.6362 23.8625 16.0924L23.8088 19.1111C23.8059 19.2734 23.7688 19.4332 23.6997 19.58C23.6307 19.7269 23.5314 19.8575 23.4083 19.9632C23.2852 20.0689 23.1411 20.1474 22.9855 20.1934C22.8299 20.2395 22.6663 20.2521 22.5055 20.2305L19.5117 19.8222C15.5767 19.2856 11.8047 17.4743 8.18415 14.4594C7.0399 20.8036 9.27665 25.1985 14.6682 28.5891L18.0167 30.6936C18.1755 30.7934 18.3074 30.9307 18.401 31.0933C18.4946 31.2559 18.547 31.4389 18.5537 31.6265C18.5603 31.814 18.5209 32.0002 18.439 32.169C18.3571 32.3378 18.2351 32.484 18.0837 32.5949L15.0324 34.8259C16.8475 34.9409 18.5706 34.8604 20.0004 34.5767C29.0432 32.7712 35.0558 25.9671 35.0558 14.7431C35.0558 13.8269 33.1142 10.6376 29.4208 10.6376ZM20.0292 16.0234C20.0626 14.1758 20.6404 12.3792 21.6901 10.8584C22.7398 9.33762 24.2148 8.1603 25.9304 7.47384C27.646 6.78738 29.5261 6.62229 31.3351 6.99924C33.1441 7.37619 34.8017 8.27842 36.1004 9.59297C37.4632 9.58339 38.6227 9.92839 41.2141 8.35481C40.5739 11.4981 40.2557 12.8647 38.8892 14.7411C38.8892 29.3864 29.8866 36.5106 20.7498 38.3334C14.4881 39.5831 5.37815 37.5303 2.77148 34.8029C4.09973 34.7013 9.50474 34.1206 12.6289 31.8321C9.9839 30.0879 -0.534766 23.8971 6.37865 7.25656C9.62357 11.0458 12.9145 13.6237 16.2495 14.9941C18.4671 15.9046 19.0133 15.8854 20.0311 16.0253L20.0292 16.0234Z" fill="white"/>
</svg>
