<svg width="1343" height="520" viewBox="0 0 1343 520" fill="none" xmlns="http://www.w3.org/2000/svg">
<rect x="7" y="440" width="3" height="15" rx="1.5" fill="white"/>
<rect x="1" y="446" width="15" height="3" rx="1.5" fill="white"/>
<circle cx="569.829" cy="332.322" r="37.5" transform="rotate(-11.5153 569.829 332.322)" fill="#E1A652"/>
<path d="M622.791 321.783C622.902 322.327 622.79 323.669 620.693 325.959C618.67 328.169 615.331 330.638 610.727 333.147C601.566 338.143 588.216 342.859 572.868 345.986C557.521 349.113 543.389 349.995 533.004 348.982C527.785 348.473 523.746 347.507 521.02 346.265C518.194 344.978 517.566 343.787 517.455 343.243C517.344 342.698 517.456 341.357 519.553 339.067C521.577 336.857 524.916 334.388 529.519 331.878C538.681 326.883 552.031 322.166 567.378 319.04C582.726 315.913 596.857 315.031 607.243 316.043C612.461 316.552 616.5 317.518 619.226 318.76C622.052 320.047 622.68 321.238 622.791 321.783Z" stroke="#F4F3F3" stroke-width="8"/>
<path d="M534.515 319.614L597.294 306.824L597.933 307.46L600.987 311.175L602.565 313.915L603.01 314.845L603.454 315.775L603.504 316.02L532.367 330.513L532.41 328.973L532.791 325.834L533.612 322.35L534.387 319.896L534.515 319.614Z" fill="#E1A652"/>
<path d="M548.535 363.188L588.737 354.997C590.361 354.667 591.945 355.715 592.276 357.338C592.607 358.962 591.559 360.546 589.935 360.877L557.109 367.564L555.49 367.129L552.641 365.668L550.037 364.158L549.152 363.572L548.535 363.188Z" fill="#CA813E"/>
<path d="M598.535 308.188L554.024 317.257C552.396 317.588 550.808 316.54 550.473 314.913C550.139 313.29 551.178 311.703 552.799 311.36L592.916 302.866L593.506 303.256L594.736 304.282L595.67 305.112L596.949 306.382L597.934 307.457L598.535 308.188Z" fill="#CA813E"/>
<path d="M532.45 336C532.05 332 532.333 331 532.499 330.5L560.952 323.5C551.618 329.167 532.85 340 532.45 336Z" fill="#E1A652"/>
<path d="M532.484 336.867L573.149 328.583C574.773 328.252 576.357 329.3 576.688 330.924C577.018 332.547 575.97 334.131 574.347 334.462L533.682 342.747L532.484 336.867Z" fill="#CA813E"/>
<path d="M601.5 315C602.163 315.956 604.361 320.853 604.5 322C604.554 322.443 603.883 320.069 604 320.5C604.041 320.649 602.99 320.818 603 320.969C603.009 321.116 602.874 320.702 602.786 320.584C601.996 319.524 601.332 318.551 600.182 317.836C599.325 317.305 598.522 316.981 597.535 317.359C596.51 317.75 595.431 318.431 594.632 319.195C594.601 319.224 593.872 320.233 594.388 320.175C595.196 320.084 596.179 319.419 596.785 318.922C597.056 318.7 597.477 318.305 597.474 317.88C597.47 317.381 596.85 317.129 596.455 317.281C596.103 317.417 595.895 317.715 596.041 318.116C596.248 318.687 596.824 318.949 597.349 319.099C597.892 319.254 598.532 319.299 599.069 319.068C599.457 318.9 599.426 318.682 599.053 318.547C598.547 318.364 597.719 318.421 597.242 318.457C596.311 318.526 595.661 318.652 594.741 318.817C593.395 319.057 592.1 319.264 590.728 319.251C589.06 319.234 587.388 319.098 585.724 318.987C585.051 318.942 584.375 318.878 583.699 318.906C582.719 318.947 581.876 319.532 581.11 320.091C580.76 320.347 580.367 320.522 580 320.746" stroke="#E1A652" stroke-width="3" stroke-linecap="round"/>
<circle cx="1308.72" cy="388.647" r="25" transform="rotate(26.7481 1308.72 388.647)" fill="#4B987C"/>
<path d="M1287.63 375.143C1289.07 372.884 1289.63 372.477 1289.93 372.284L1307.71 380.367C1300.48 379.48 1286.19 377.402 1287.63 375.143Z" fill="#4B987C"/>
<circle cx="187.5" cy="512.5" r="6" stroke="white" stroke-width="3"/>
<circle cx="783.5" cy="472.5" r="6" stroke="white" stroke-width="3"/>
<rect x="778.488" y="293.5" width="3.8" height="19" rx="1.9" transform="rotate(27.3945 778.488 293.5)" fill="white"/>
<rect x="768.242" y="296.75" width="19" height="3.8" rx="1.9" transform="rotate(27.3945 768.242 296.75)" fill="white"/>
<path d="M1 2C184.974 9.23018 597.538 79.1524 776 301" stroke="white" stroke-opacity="0.21" stroke-width="3"/>
<path d="M180.5 84.5C364.474 91.7302 595.538 80.6524 774 302.5" stroke="white" stroke-opacity="0.21" stroke-width="3"/>
<circle cx="1331.73" cy="379.57" r="7.5" fill="white"/>
</svg>
